<?xml version="1.0" standalone="no"?><!DOCTYPE svg PUBLIC "-//W3C//DTD SVG 1.1//EN" "http://www.w3.org/Graphics/SVG/1.1/DTD/svg11.dtd"><svg class="icon" width="200px" height="200.00px" viewBox="0 0 1024 1024" version="1.1" xmlns="http://www.w3.org/2000/svg"><path fill="#17abe3" d="M987.764216 829.175803c-4.118807 0-22.705118 0-31.718399 0l-85.766362 0C818.025347 681.366386 677.432285 575.280232 511.720126 575.280232c-165.712159 0-306.273499 106.086154-358.558305 253.895571l-85.210707 0c-9.014304 0-27.598568 0-31.718399 0-17.515932 0-31.717376-14.202467-31.717376-31.716352l0-31.718399L4.515339 448.564225c0-35.031864 28.402887-63.434751 63.435775-63.434751l31.717376 0L99.668489 258.257925 36.234761 258.257925c-17.515932 0-31.717376-14.20042-31.717376-31.717376 0-17.516956 14.201443-31.717376 31.717376-31.717376l951.529455 0c17.500583 0 31.718399 14.20042 31.718399 31.717376 0 17.515932-14.21884 31.717376-31.718399 31.717376l-63.434751 0 0 126.871549 31.716352 0c35.031864 0 63.436798 28.402887 63.436798 63.434751l0 317.176826 0 31.718399C1019.482615 814.973336 1005.263775 829.175803 987.764216 829.175803zM289.975812 258.257925 163.105287 258.257925l0 126.871549 126.870526 0L289.975812 258.257925zM480.282113 258.257925 353.410564 258.257925l0 126.871549L480.282113 385.129474 480.282113 258.257925zM670.586366 258.257925 543.716864 258.257925l0 126.871549 126.869502 0L670.586366 258.257925zM860.89369 258.257925l-126.869502 0 0 126.871549 126.869502 0L860.89369 258.257925z" /></svg>