<?xml version="1.0" encoding="utf-8"?>
<!-- Generator: Adobe Illustrator 16.0.0, SVG Export Plug-In . SVG Version: 6.00 Build 0)  -->
<!DOCTYPE svg PUBLIC "-//W3C//DTD SVG 1.1//EN" "http://www.w3.org/Graphics/SVG/1.1/DTD/svg11.dtd">
<svg version="1.1" id="Layer_1" xmlns="http://www.w3.org/2000/svg" xmlns:xlink="http://www.w3.org/1999/xlink" x="0px" y="0px"
	 width="200px" height="200px" viewBox="0 0 200 200" enable-background="new 0 0 200 200" xml:space="preserve">
<path fill="#0072BC" d="M158.803,18.323C145.955,12.863,134.43,7.005,100,7.005c-34.431,0-44.521,4.821-59.808,10.617
	C29.883,21.531,24.504,32.15,24.504,42.108v114.179c0,7.543,4.981,14.001,12.05,16.691v6.836c0,7.279,5.9,13.18,13.18,13.18
	s13.18-5.9,13.18-13.18v-5.497h71.516v5.497c0,7.279,5.902,13.18,13.181,13.18s13.18-5.9,13.18-13.18v-6.029
	c8.444-1.946,14.706-9.041,14.706-17.498V42.108C175.496,32.15,168.742,22.547,158.803,18.323z M53.182,142.742
	c-6.628,0-12.001-5.373-12.001-12.001s5.374-12.002,12.001-12.002s12.001,5.374,12.001,12.002S59.81,142.742,53.182,142.742z
	 M146.817,142.742c-6.628,0-12.001-5.373-12.001-12.001s5.373-12.002,12.001-12.002s12.001,5.374,12.001,12.002
	S153.445,142.742,146.817,142.742z M160.79,94.158H40.822V44.305H160.79V94.158L160.79,94.158z"/>
</svg>
