<?xml version="1.0" standalone="no"?><!DOCTYPE svg PUBLIC "-//W3C//DTD SVG 1.1//EN" "http://www.w3.org/Graphics/SVG/1.1/DTD/svg11.dtd"><svg class="icon" width="200px" height="200.00px" viewBox="0 0 1024 1024" version="1.1" xmlns="http://www.w3.org/2000/svg"><path fill="#1296db" d="M929.28 920.32H94.72c-10.24 0-17.92-7.68-17.92-17.92 0-10.24 7.68-19.2 17.92-19.2h833.28c10.24 0 17.92 7.68 17.92 17.92 1.28 11.52-6.4 19.2-16.64 19.2zM465.92 833.28H293.12c-10.24 0-17.92-7.68-17.92-17.92s7.68-17.92 17.92-17.92h171.52c10.24 0 17.92 7.68 17.92 17.92s-6.4 17.92-16.64 17.92zM465.92 741.12H293.12c-10.24 0-17.92-7.68-17.92-17.92s7.68-17.92 17.92-17.92h171.52c10.24 0 17.92 7.68 17.92 17.92s-6.4 17.92-16.64 17.92zM465.92 648.96H293.12c-10.24 0-17.92-7.68-17.92-17.92 0-10.24 7.68-17.92 17.92-17.92h171.52c10.24 0 17.92 7.68 17.92 17.92 1.28 8.96-6.4 17.92-16.64 17.92zM563.2 920.32H200.96c-10.24 0-17.92-7.68-17.92-17.92V618.24c0-61.44 47.36-111.36 106.24-111.36h186.88c56.32 0 106.24 47.36 106.24 85.76v286.72c0 7.68 0 16.64-1.28 25.6 0 8.96-7.68 15.36-17.92 15.36zM218.88 883.2h326.4V592.64c0-14.08-30.72-48.64-70.4-48.64H289.28c-38.4 0-70.4 33.28-70.4 75.52V883.2zM770.56 920.32H572.16c-10.24 0-17.92-7.68-17.92-17.92V346.88c0-10.24 7.68-17.92 17.92-17.92h198.4c10.24 0 17.92 7.68 17.92 17.92v555.52c0 10.24-7.68 17.92-17.92 17.92zM590.08 883.2h161.28V364.8H590.08V883.2zM622.08 272.64c-16.64 0-34.56-2.56-48.64-8.96-28.16 10.24-64 11.52-93.44 1.28-14.08 3.84-29.44 6.4-44.8 6.4-60.16 0-107.52-33.28-107.52-76.8s47.36-76.8 107.52-76.8c15.36 0 30.72 2.56 44.8 6.4 29.44-8.96 65.28-8.96 93.44 1.28 15.36-5.12 32-8.96 48.64-8.96 60.16 0 107.52 33.28 107.52 76.8s-47.36 79.36-107.52 79.36z m-49.92-47.36c2.56 0 5.12 0 7.68 1.28 12.8 5.12 26.88 8.96 42.24 8.96 40.96 0 70.4-21.76 70.4-40.96S664.32 153.6 622.08 153.6c-15.36 0-29.44 2.56-42.24 8.96-5.12 2.56-10.24 2.56-15.36 0-23.04-10.24-55.04-11.52-79.36-1.28-3.84 1.28-8.96 1.28-12.8 0-11.52-3.84-24.32-6.4-37.12-6.4-40.96 0-70.4 21.76-70.4 40.96s28.16 40.96 70.4 40.96c12.8 0 26.88-2.56 37.12-6.4 3.84-1.28 8.96-1.28 12.8 0 24.32 8.96 56.32 8.96 79.36-1.28 3.84-2.56 6.4-3.84 7.68-3.84z" /></svg>