<?xml version="1.0" encoding="utf-8"?>
<!-- Generator: Adobe Illustrator 16.0.0, SVG Export Plug-In . SVG Version: 6.00 Build 0)  -->
<!DOCTYPE svg PUBLIC "-//W3C//DTD SVG 1.1//EN" "http://www.w3.org/Graphics/SVG/1.1/DTD/svg11.dtd">
<svg version="1.1" id="Layer_1" xmlns="http://www.w3.org/2000/svg" xmlns:xlink="http://www.w3.org/1999/xlink" x="0px" y="0px"
	 width="200px" height="200px" viewBox="0 0 200 200" enable-background="new 0 0 200 200" xml:space="preserve">
<path fill="#A3238E" d="M102.908,85.396c12.552,0,22.727-10.175,22.727-22.726c0-12.551-10.175-22.726-22.727-22.726
	c-12.551,0-22.726,10.175-22.726,22.726C80.182,75.222,90.357,85.396,102.908,85.396z M102.908,56.483
	c3.424,0,6.197,2.775,6.197,6.198c0,3.423-2.773,6.198-6.197,6.198c-3.423,0-6.198-2.775-6.198-6.198
	C96.71,59.258,99.485,56.483,102.908,56.483z M164.443,162.645c-0.012,0-0.024,0.002-0.037,0.002v-0.006h-12.568
	c20.413-15.068,33.654-39.293,33.654-66.613c0-45.698-37.046-82.744-82.744-82.744S20.004,50.33,20.004,96.028
	c0,45.699,37.046,82.744,82.744,82.744c0.551,0,1.1-0.007,1.648-0.018v0.026h60.01v-0.013c0.013,0,0.025,0,0.037,0
	c4.452,0,8.062-3.609,8.062-8.061C172.505,166.254,168.896,162.645,164.443,162.645z M102.735,162.645
	c-36.757,0-66.555-29.797-66.555-66.554s29.797-66.555,66.555-66.555c36.757,0,66.556,29.798,66.556,66.555
	S139.492,162.645,102.735,162.645z M159.876,96.494c0-12.551-10.175-22.727-22.726-22.727c-12.552,0-22.727,10.175-22.727,22.727
	c0,12.551,10.175,22.727,22.727,22.727C149.701,119.221,159.876,109.045,159.876,96.494z M137.149,102.703
	c-3.423,0-6.198-2.775-6.198-6.199c0-3.423,2.775-6.198,6.198-6.198c3.424,0,6.198,2.775,6.198,6.198
	C143.348,99.928,140.573,102.703,137.149,102.703z M102.945,107.945c-12.55,0-22.726,10.175-22.726,22.726
	c0,12.552,10.175,22.727,22.726,22.727c12.553,0,22.727-10.175,22.727-22.727C125.672,118.12,115.498,107.945,102.945,107.945z
	 M102.945,136.88c-3.422,0-6.197-2.775-6.197-6.198c0-3.424,2.775-6.198,6.197-6.198c3.424,0,6.198,2.775,6.198,6.198
	S106.369,136.88,102.945,136.88z M91.635,96.654c0-12.551-10.175-22.727-22.727-22.727c-12.551,0-22.726,10.175-22.726,22.727
	c0,12.551,10.175,22.727,22.726,22.727C81.46,119.381,91.635,109.205,91.635,96.654z M68.908,102.863
	c-3.423,0-6.198-2.775-6.198-6.199c0-3.423,2.775-6.198,6.198-6.198c3.423,0,6.198,2.775,6.198,6.198
	C75.106,100.088,72.332,102.863,68.908,102.863z"/>
</svg>
