<?xml version="1.0" encoding="utf-8"?>
<!-- Generator: Adobe Illustrator 16.0.0, SVG Export Plug-In . SVG Version: 6.00 Build 0)  -->
<!DOCTYPE svg PUBLIC "-//W3C//DTD SVG 1.1//EN" "http://www.w3.org/Graphics/SVG/1.1/DTD/svg11.dtd">
<svg version="1.1" id="Layer_1" xmlns="http://www.w3.org/2000/svg" xmlns:xlink="http://www.w3.org/1999/xlink" x="0px" y="0px"
	 width="200px" height="200px" viewBox="0 0 200 200" enable-background="new 0 0 200 200" xml:space="preserve">
<path fill="#AA4E10" d="M61.569,0.075c6.617,0,12.55,3.035,16.542,7.848c3.321-2.363,7.251-3.756,11.443-3.756
	c6.704,0,12.625,3.433,16.343,8.744c2.985-4.702,8.022-7.824,13.757-7.824c6.417,0,11.989,3.931,14.764,9.64
	c1.914-1.058,4.203-1.642,6.541-1.642c8.135,0,14.764,7.002,14.764,15.622c0,4.9-2.139,9.266-5.447,12.139
	c0.498,1.518,0.697,3.172,0.697,4.863c0,0.609,0,1.207-0.075,1.804h-30.013c0-0.597-0.074-1.194-0.074-1.804
	c0-2.077,0.41-4.055,1.032-5.858c-5.19,0.717-10.399-1.167-13.931-5.037c-3.233,7.251-10.199,12.276-18.346,12.276
	c-5.236,0-10-2.114-13.582-5.584c-3.938,3.59-9.074,5.582-14.403,5.584c-12.214,0-22.139-10.522-22.139-23.507
	C39.43,10.597,49.355,0.075,61.569,0.075z M63.012,100.796h17.873v27.127H63.012V100.796z M91.644,100.796h17.86v27.127h-17.86
	V100.796z M25.089,115.398H42.95v27.139H25.089V115.398z M121.568,55.746V82.55H48.323v18.246H14.741v84.603H0.114V200h174.005
	v-14.602h-13.731l-9.366-129.652H121.568z"/>
</svg>
