<?xml version="1.0" encoding="utf-8"?>
<!-- Generator: Adobe Illustrator 16.0.0, SVG Export Plug-In . SVG Version: 6.00 Build 0)  -->
<!DOCTYPE svg PUBLIC "-//W3C//DTD SVG 1.1//EN" "http://www.w3.org/Graphics/SVG/1.1/DTD/svg11.dtd">
<svg version="1.1" id="Layer_1" xmlns="http://www.w3.org/2000/svg" xmlns:xlink="http://www.w3.org/1999/xlink" x="0px" y="0px"
	 width="200px" height="200px" viewBox="0 0 200 200" enable-background="new 0 0 200 200" xml:space="preserve">
<path fill="#ED1C24" d="M93.098,20.186c-1.669,5.343-3.521,1.846-7.516,1.171v7.874h21.796v-10.63H93.22
	C93.292,19.515,93.271,20.122,93.098,20.186z"/>
<path fill="#ED1C24" d="M93.098,20.186c0.173-0.063,0.194-0.671,0.122-1.585C92.956,15.259,91.434,7.81,91.434,7.81
	c0-1.127-0.94,0.081-2.094,0.081c0,0-25.716,0.563-43.89-0.644c-2.442-0.135-2.389,0-3.651,1.261
	c-1.208,1.584-1.288,6.551-0.349,7.49c0.376,0.402,0.913,0.644,1.529,0.644c0,0,5.745-2.201,34.575-2.013
	c0.779,0,1.692,1.155,0.216,2.094c-5.047,3.168-20.482,8.778-25.985,11.06c-1.234,0.509-2.147,1.556-2.389,2.55
	c-0.269,1.181-0.456,3.167-0.483,4.697c0,1.262,1.503,2.228,2.658,1.557c6.657-3.705,16.831-10.416,30.252-14.925
	c1.437-0.463,2.675-0.487,3.758-0.304C89.577,22.032,91.429,25.529,93.098,20.186z"/>
<path fill="#ED1C24" d="M50.498,35.432c1.288-0.725,2.71-1.529,4.24-2.442c6.416-3.758,15.22-8.885,26.092-12.509
	c0.886-0.269,1.745-0.43,2.605-0.43c1.557,0,2.872,0.483,3.946,0.967l0.537,0.242c0.779,0.349,1.423,0.644,1.986,0.644
	c0.59,0,1.289-0.323,2.04-2.712l0.054-0.133l0.081-0.027c0.242-0.751-0.59-5.986-1.584-11.06c0.108-0.053,0.242-0.107,0.322-0.16
	c0.161-0.081,0.376-0.161,0.349-0.214c0,0,0.027,0.053,0.027,0.268c1.1,5.369,2.066,11.248,1.798,12.053l-0.081,0.027l-0.054,0.134
	c-0.752,2.389-1.45,2.71-2.041,2.71c-0.537,0-1.208-0.295-1.986-0.644l-0.537-0.242c-1.074-0.483-2.362-0.966-3.946-0.966
	c-0.832,0-1.718,0.134-2.604,0.43C70.871,24.99,62.066,30.144,55.65,33.875c-1.529,0.887-2.952,1.719-4.241,2.443
	c-0.188,0.108-0.43,0.162-0.644,0.162c-0.413-0.002-0.809-0.166-1.102-0.457c-0.161-0.161-0.268-0.349-0.349-0.537
	c0.162,0.055,0.349,0.108,0.511,0.108C50.068,35.594,50.282,35.541,50.498,35.432L50.498,35.432z"/>
<path fill="#ED1C24" d="M92.614,20.883c0,1.073,0.886,1.959,1.987,1.959h18.147c1.1,0,1.984-0.858,1.984-1.959v-8.939
	c0-1.074-0.885-1.959-1.984-1.959H94.601c-1.101,0-1.987,0.885-1.987,1.959V20.883z"/>
<path fill="#ED1C24" d="M94.413,15.729c0,1.128,0.939,2.041,2.067,2.041s2.066-0.912,2.066-2.041c0-1.127-0.911-2.013-2.066-2.013
	S94.413,14.629,94.413,15.729z"/>
<path fill="#ED1C24" d="M94.734,15.729c0.404,0,0.779,0.376,0.779,0.779c0,0.404-0.375,0.752-0.779,0.752V15.729z"/>
<path fill="#ED1C24" d="M95.111,15.729c0,0.752,0.618,1.343,1.369,1.343c0.752,0,1.369-0.59,1.369-1.343
	c0-0.751-0.616-1.341-1.369-1.341C95.729,14.387,95.111,15.005,95.111,15.729z"/>
<path fill="#ED1C24" d="M85.045,15.3c0,6.254,5.127,11.3,11.462,11.3c6.334,0,11.461-5.046,11.461-11.3
	c0-6.228-5.127-11.302-11.461-11.302C90.172,3.999,85.045,9.044,85.045,15.3z M112.397,11.059h0.591c0.134,0,0.241,0.026,0.35,0.053
	c-0.295-0.053,0.965-0.242,1.315,1.234c0.08,0.242,0.966,0.913,1.423,0.939c5.073,0.188,13.152,1.531,20.293,7.57
	c7.812,6.576,15.059,15.086,15.005,35.379c0-1.959-5.905-0.402-5.905-0.402c-0.026-19.166-7.168-25.018-13.287-30.2
	c-5.529-4.697-12.026-5.878-16.213-6.039c-0.43-0.027-1.262,0.858-1.343,1.153c-0.268,1.343-1.046,1.343-1.45,1.369h-0.054
	c-0.054,0-0.106,0.027-0.16,0.027h-0.591c-0.564,0-1.048-0.027-1.048-0.591v-9.904C111.377,11.085,111.834,11.059,112.397,11.059z"
	/>
<path fill="#ED1C24" d="M138.06,67.294V66.33c0-3.946,2.256-7.383,5.558-9.126c0-0.055-0.027-0.081-0.027-0.135v-2.147
	c0-0.564,0.457-1.02,1.047-1.02h7.785c0.563,0,1.047,0.456,1.047,1.02v2.147c0,0.026-0.027,0.08-0.027,0.107
	c3.355,1.717,5.637,5.18,5.637,9.18v28.4c0,0.564-0.455,1.02-1.046,1.02H139c-0.564,0-1.047-0.456-1.047-1.02V67.698
	C137.98,67.563,138.006,67.429,138.06,67.294z M85.582,28.533h21.796v15.704H85.582V28.533z"/>
<path fill="#ED1C24" d="M58.872,72.637c0-16.026,13.207-29.018,29.474-29.018h17.556c16.294,0,29.474,12.992,29.474,29.018
	c0,0.214,0,0.456-0.025,0.671H58.872V72.637z M58.846,74.113c0-0.214,0.026-0.456,0.026-0.672v-0.133h76.478v0.321
	c0,0.162,0.025,0.323,0.025,0.483v5.476H58.846V74.113L58.846,74.113z M58.846,79.589h76.529v95.831H58.846V79.589z M135.375,175.42
	v13.02c0,5.664-1.207,7.678-4.59,7.678H63.462c-3.409,0-4.616-2.014-4.616-7.678v-13.02H135.375L135.375,175.42z"/>
<path fill="#ED1C24" d="M76.697,104.876h42.519v46.332H76.697V104.876z M92.345,15.3c0.404,0,0.779,0.375,0.779,0.778
	c0,0.402-0.375,0.751-0.779,0.751V15.3z"/>
</svg>
