<?xml version="1.0" encoding="utf-8"?>
<!-- Generator: Adobe Illustrator 16.0.0, SVG Export Plug-In . SVG Version: 6.00 Build 0)  -->
<!DOCTYPE svg PUBLIC "-//W3C//DTD SVG 1.1//EN" "http://www.w3.org/Graphics/SVG/1.1/DTD/svg11.dtd">
<svg version="1.1" id="Layer_1" xmlns="http://www.w3.org/2000/svg" xmlns:xlink="http://www.w3.org/1999/xlink" x="0px" y="0px"
	 width="200px" height="200px" viewBox="0 0 200 200" enable-background="new 0 0 200 200" xml:space="preserve">
<path fill="#ED1C24" d="M173.867,100l18.467,18.467c10.188,10.203,10.188,26.73,0,36.934L155.4,192.334
	c-10.203,10.188-26.73,10.188-36.934,0L100,173.867l-18.467,18.467c-10.203,10.188-26.73,10.188-36.933,0L7.667,155.4
	c-10.189-10.203-10.189-26.73,0-36.934L26.133,100L7.667,81.533c-10.189-10.203-10.189-26.73,0-36.933L44.6,7.667
	c10.203-10.189,26.73-10.189,36.933,0L100,26.133l18.467-18.467c10.203-10.189,26.73-10.189,36.934,0L192.334,44.6
	c10.188,10.203,10.188,26.73,0,36.933L173.867,100z M152.2,86.667h-38.866V47.733H86.667v38.933H47.733v26.667h38.933v39.199h26.667
	v-39.199h39.199L152.2,86.667z"/>
</svg>
