<?xml version="1.0" encoding="utf-8"?>
<!-- Generator: Adobe Illustrator 16.0.0, SVG Export Plug-In . SVG Version: 6.00 Build 0)  -->
<!DOCTYPE svg PUBLIC "-//W3C//DTD SVG 1.1//EN" "http://www.w3.org/Graphics/SVG/1.1/DTD/svg11.dtd">
<svg version="1.1" id="Layer_1" xmlns="http://www.w3.org/2000/svg" xmlns:xlink="http://www.w3.org/1999/xlink" x="0px" y="0px"
	 width="200px" height="200px" viewBox="0 0 200 200" enable-background="new 0 0 200 200" xml:space="preserve">
<path fill="#ED1C24" d="M102.631,9.995c42.826,0,77.544,34.717,77.544,77.543c0,42.825-34.718,77.543-77.544,77.543
	c-42.825,0-77.542-34.718-77.542-77.543S59.806,9.995,102.631,9.995z M151.287,60.965l-0.31-2.583l-2.603-0.102
	c-0.402-0.015-9.875-0.51-11.158-11.697l-0.215-1.865l-1.764-0.649c-31.215-11.483-31.187-11.468-32.034-11.483h-0.873l-0.481,0.301
	c-1.041,0.385-6.076,2.244-30.369,11.182l-1.764,0.649l-0.215,1.865C68.254,57.449,59.336,58.227,58.344,58.28l-2.603,0.101
	l-0.31,2.583c-0.073,0.614-6.71,61.443,45.919,81.57l0.527,0.203h2.967l0.527-0.203C157.995,122.408,151.361,61.579,151.287,60.965
	L151.287,60.965z M103.711,136.635h-0.702c-19.836-7.754-32.854-22.572-38.69-44.044c-3.408-12.538-3.268-23.875-3.005-28.589
	c5.129-1.16,12.099-5.165,13.962-14.827c18.902-6.956,25.583-9.412,28.028-10.333c1.954,0.709,8.202,2.998,28.14,10.333
	c1.862,9.659,8.831,13.664,13.959,14.827C145.981,74.775,145.807,120.163,103.711,136.635L103.711,136.635z M103.359,51.565
	l-9.746,19.744l-21.791,3.168l15.768,15.369l-3.723,21.702l19.491-10.246l19.49,10.246l-3.723-21.702l15.769-15.369l-21.79-3.168
	L103.359,51.565z"/>
</svg>
