<?xml version="1.0" encoding="utf-8"?>
<!-- Generator: Adobe Illustrator 16.0.0, SVG Export Plug-In . SVG Version: 6.00 Build 0)  -->
<!DOCTYPE svg PUBLIC "-//W3C//DTD SVG 1.1//EN" "http://www.w3.org/Graphics/SVG/1.1/DTD/svg11.dtd">
<svg version="1.1" id="Layer_1" xmlns="http://www.w3.org/2000/svg" xmlns:xlink="http://www.w3.org/1999/xlink" x="0px" y="0px"
	 width="200px" height="200px" viewBox="0 0 200 200" enable-background="new 0 0 200 200" xml:space="preserve">
<path fill="#00AEEF" d="M125.646,90.841V69.796H72.659v21.045l26.498-10.271L125.646,90.841L125.646,90.841z M99.716,12.464
	c-48.187,0-87.248,39.061-87.248,87.248c0,48.187,39.061,87.247,87.248,87.247c48.187,0,87.248-39.061,87.248-87.247
	C186.964,51.525,147.902,12.464,99.716,12.464z M52.788,100.081c0.501-1.032,1.524-2.055,2.546-2.566l8.151-3.086V69.796
	c0-5.652,4.071-10.792,9.173-10.792h13.245l3.569-13.348h19.871l3.059,13.348h13.244c5.103,0,9.174,4.629,9.174,10.792v24.633
	l8.159,3.598c1.014,0.511,2.036,1.022,2.538,2.565c0,1.032,0.512,2.575,0,4.109l-10.697,34.914c-7.129,0-13.246-4.619-17.836-10.783
	c-4.582,6.164-10.698,10.783-17.827,10.783c-7.139,0-13.254-4.619-17.846-10.783c-4.07,6.164-10.697,10.783-17.826,10.783
	l-10.698-35.426C52.267,102.646,52.267,101.624,52.788,100.081L52.788,100.081z M147.432,153.986h-3.949
	c-6.628,0-18.338-3.087-24.455-6.675c-12.23,7.186-26.498,7.186-38.729,0c-6.115,3.587-17.835,6.675-24.462,6.675h-5.093
	c11.209,0,30.569-14.892,30.569-14.892c11.73,9.239,24.463,9.761,36.183,0.521C117.495,139.615,136.068,153.525,147.432,153.986
	h1.145C148.194,154.002,147.813,154.002,147.432,153.986z"/>
</svg>
