<?xml version="1.0" encoding="utf-8"?>
<!-- Generator: Adobe Illustrator 16.0.0, SVG Export Plug-In . SVG Version: 6.00 Build 0)  -->
<!DOCTYPE svg PUBLIC "-//W3C//DTD SVG 1.1//EN" "http://www.w3.org/Graphics/SVG/1.1/DTD/svg11.dtd">
<svg version="1.1" id="Layer_1" xmlns="http://www.w3.org/2000/svg" xmlns:xlink="http://www.w3.org/1999/xlink" x="0px" y="0px"
	 width="200px" height="200px" viewBox="0 0 200 200" enable-background="new 0 0 200 200" xml:space="preserve">
<path fill="#00A651" d="M182.73,60.345L108.9,31.958c-5.729-2.203-12.071-2.203-17.8,0L17.27,60.345
	c-6.36,2.445-6.36,11.443,0,13.889L91.1,102.62c5.729,2.202,12.072,2.202,17.8,0l58.059-22.323v40.009h10.747V76.166l5.024-1.932
	C189.09,71.788,189.09,62.79,182.73,60.345z M109.521,121.332c-5.729,2.203-12.072,2.203-17.801,0l-31.151-11.979l-12.028-4.625
	v41.601c0,3.079,1.896,5.839,4.77,6.944l38.408,14.769c5.73,2.203,12.074,2.202,17.804-0.001l37.169-14.297
	c2.873-1.104,4.769-3.865,4.77-6.943v-41.589l-10.788,4.142L109.521,121.332z"/>
</svg>
