<?xml version="1.0" encoding="utf-8"?>
<!-- Generator: Adobe Illustrator 16.0.0, SVG Export Plug-In . SVG Version: 6.00 Build 0)  -->
<!DOCTYPE svg PUBLIC "-//W3C//DTD SVG 1.1//EN" "http://www.w3.org/Graphics/SVG/1.1/DTD/svg11.dtd">
<svg version="1.1" id="Layer_1" xmlns="http://www.w3.org/2000/svg" xmlns:xlink="http://www.w3.org/1999/xlink" x="0px" y="0px"
	 width="200px" height="200px" viewBox="0 0 200 200" enable-background="new 0 0 200 200" xml:space="preserve">
<path fill="#AB218E" d="M180,95V85c0-0.78-0.18-1.54-0.53-2.24l-20-40C158.62,41.07,156.891,40,155,40H35
	c-1.89,0-3.63,1.07-4.47,2.76l-20,40C10.18,83.45,10,84.22,10,85v10c0,8.16,3.93,15.42,10,19.99V180h-5c-2.76,0-5,2.24-5,5
	s2.24,5,5,5h160c2.76,0,5-2.24,5-5s-2.24-5-5-5h-5v-65.01C176.07,110.42,180,103.17,180,95z M115,110c-8.27,0-15-6.73-15-15v-5h30v5
	C130,103.27,123.27,110,115,110z M20,95v-5h30v5c0,8.27-6.73,15-15,15S20,103.27,20,95z M90,50v30H61.4l7.5-30H90z M121.1,50l7.5,30
	H100V50H121.1z M60,90h30v5c0,8.27-6.73,15-15,15s-15-6.73-15-15V90z M140,90h30v5c0,8.27-6.73,15-15,15s-15-6.73-15-15V90z
	 M166.91,80H138.9l-7.5-30h20.51L166.91,80L166.91,80z M38.09,50H58.6l-7.5,30H23.09L38.09,50z M30,119.5c1.62,0.33,3.29,0.5,5,0.5
	c8.17,0,15.44-3.939,20-10.02c4.56,6.08,11.83,10.02,20,10.02s15.44-3.939,20-10.02c3.61,4.8,8.9,8.27,15,9.51v60.5H30v-60.5V119.5z
	 M160,180h-40v-60.5c6.1-1.24,11.391-4.71,15-9.51c4.561,6.08,11.83,10.02,20,10.02c1.71,0,3.38-0.17,5-0.5v60.5V180z M140,145
	c0,2.76-2.24,5-5,5s-5-2.24-5-5s2.24-5,5-5S140,142.24,140,145z M45,150c-1.28,0-2.56-0.49-3.54-1.46c-1.95-1.95-1.95-5.12,0-7.07
	l10-10c1.95-1.95,5.12-1.95,7.07,0c1.95,1.95,1.95,5.12,0,7.07l-10,10c-0.98,0.979-2.26,1.46-3.54,1.46H45z M55,170
	c-1.28,0-2.56-0.49-3.54-1.46c-1.95-1.95-1.95-5.12,0-7.07l30-30c1.95-1.95,5.12-1.95,7.07,0c1.95,1.95,1.95,5.12,0,7.07l-30,30
	c-0.98,0.979-2.26,1.46-3.54,1.46H55z M85,170c-1.28,0-2.56-0.49-3.54-1.46c-1.95-1.95-1.95-5.12,0-7.07l10-10
	c1.95-1.95,5.12-1.95,7.07,0c1.95,1.95,1.95,5.12,0,7.07l-10,10c-0.98,0.979-2.26,1.46-3.54,1.46H85z"/>
</svg>
