<?xml version="1.0" encoding="utf-8"?>
<!-- Generator: Adobe Illustrator 16.0.0, SVG Export Plug-In . SVG Version: 6.00 Build 0)  -->
<!DOCTYPE svg PUBLIC "-//W3C//DTD SVG 1.1//EN" "http://www.w3.org/Graphics/SVG/1.1/DTD/svg11.dtd">
<svg version="1.1" id="Layer_1" xmlns="http://www.w3.org/2000/svg" xmlns:xlink="http://www.w3.org/1999/xlink" x="0px" y="0px"
	 width="200px" height="200px" viewBox="0 0 200 200" enable-background="new 0 0 200 200" xml:space="preserve">
<path fill="#0072BC" d="M187.5,137.388L181.25,37.5C180.4,25.2,161.875,0,100,0S20.188,24.7,18.75,37.5l-6.25,99.888
	c0,13.837,11.225,25.112,25.075,25.112h7.862l-13.7,37.5H48.8l3.425-12.5h95.55L151.2,200h17.063l-13.7-37.5h7.862
	C176.287,162.5,187.5,151.263,187.5,137.388z M75,12.5h50c0,0,6.25,0,6.25,6.25S125,25,125,25H75c0,0-6.25,0-6.25-6.25
	S75,12.5,75,12.5z M40,50c0.9-7.15,8.85-12.5,14.925-12.5h90.15C151.263,37.5,159,43.05,160,50l2.5,37.5
	c0.688,6.9-5.7,12.5-12.438,12.5H49.938c-6.862,0-13.125-5.55-12.438-12.5L40,50z M43.75,150c-6.9,0-12.5-5.6-12.5-12.5
	s5.6-12.5,12.5-12.5s12.5,5.6,12.5,12.5S50.65,150,43.75,150z M55.65,175l3.425-12.5h81.85l3.425,12.5H55.65z M143.75,137.5
	c0-6.9,5.6-12.5,12.5-12.5s12.5,5.6,12.5,12.5s-5.6,12.5-12.5,12.5S143.75,144.4,143.75,137.5z"/>
</svg>
